<svg width="15" height="15" viewBox="0 0 15 15" fill="none" xmlns="http://www.w3.org/2000/svg">
<g clip-path="url(#clip0_3_31)">
<path d="M9.84375 10.3125C12.6914 10.3125 15 8.00391 15 5.15625C15 2.30859 12.6914 0 9.84375 0C6.99609 0 4.6875 2.30859 4.6875 5.15625C4.6875 5.7041 4.77246 6.23438 4.93066 6.72949L0.205078 11.4551C0.0732422 11.5869 0 11.7656 0 11.9531V14.2969C0 14.6865 0.313477 15 0.703125 15H3.04688C3.43652 15 3.75 14.6865 3.75 14.2969V13.125H4.92188C5.31152 13.125 5.625 12.8115 5.625 12.4219V11.25H6.79688C6.98438 11.25 7.16309 11.1768 7.29492 11.0449L8.27051 10.0693C8.76562 10.2275 9.2959 10.3125 9.84375 10.3125ZM11.0156 2.8125C11.3264 2.8125 11.6245 2.93597 11.8443 3.15573C12.064 3.3755 12.1875 3.67357 12.1875 3.98438C12.1875 4.29518 12.064 4.59325 11.8443 4.81302C11.6245 5.03278 11.3264 5.15625 11.0156 5.15625C10.7048 5.15625 10.4068 5.03278 10.187 4.81302C9.96721 4.59325 9.84375 4.29518 9.84375 3.98438C9.84375 3.67357 9.96721 3.3755 10.187 3.15573C10.4068 2.93597 10.7048 2.8125 11.0156 2.8125Z" fill="black"/>
</g>
<defs>
<clipPath id="clip0_3_31">
<rect width="15" height="15" fill="white"/>
</clipPath>
</defs>
</svg>
