<svg width="20" height="16" viewBox="0 0 20 16" fill="none" xmlns="http://www.w3.org/2000/svg">
<path d="M19.9931 7.98438C19.9931 8.54688 19.4722 8.9875 18.8819 8.9875H17.7708L17.7951 13.9937C17.7951 14.0781 17.7882 14.1625 17.7778 14.2469V14.75C17.7778 15.4406 17.1562 16 16.3889 16H15.8333C15.7951 16 15.7569 16 15.7187 15.9969C15.6701 16 15.6215 16 15.5729 16H14.4444H13.6111C12.8438 16 12.2222 15.4406 12.2222 14.75V14V12C12.2222 11.4469 11.7257 11 11.1111 11H8.88889C8.27431 11 7.77778 11.4469 7.77778 12V14V14.75C7.77778 15.4406 7.15625 16 6.38889 16H5.55556H4.44792C4.39583 16 4.34375 15.9969 4.29167 15.9937C4.25 15.9969 4.20833 16 4.16667 16H3.61111C2.84375 16 2.22222 15.4406 2.22222 14.75V11.25C2.22222 11.2219 2.22222 11.1906 2.22569 11.1625V8.9875H1.11111C0.486111 8.9875 0 8.55 0 7.98438C0 7.70312 0.104167 7.45312 0.347222 7.23438L9.25 0.25C9.49305 0.03125 9.77083 0 10.0139 0C10.2569 0 10.5347 0.0625 10.7431 0.21875L19.6111 7.23438C19.8889 7.45312 20.0278 7.70312 19.9931 7.98438Z" fill="#321B1B"/>
</svg>
