<svg width="17" height="17" viewBox="0 0 17 17" fill="none" xmlns="http://www.w3.org/2000/svg">
<g clip-path="url(#clip0_3_33)">
<path d="M8.5 8.5C9.78819 8.5 11.0236 8.05223 11.9345 7.2552C12.8454 6.45817 13.3571 5.37717 13.3571 4.25C13.3571 3.12283 12.8454 2.04183 11.9345 1.2448C11.0236 0.447767 9.78819 0 8.5 0C7.21181 0 5.97637 0.447767 5.06548 1.2448C4.15459 2.04183 3.64286 3.12283 3.64286 4.25C3.64286 5.37717 4.15459 6.45817 5.06548 7.2552C5.97637 8.05223 7.21181 8.5 8.5 8.5ZM6.76585 10.0938C3.02813 10.0938 0 12.7434 0 16.0139C0 16.5584 0.504688 17 1.12701 17H15.873C16.4953 17 17 16.5584 17 16.0139C17 12.7434 13.9719 10.0938 10.2342 10.0938H6.76585Z" fill="black"/>
</g>
<defs>
<clipPath id="clip0_3_33">
<rect width="17" height="17" fill="white"/>
</clipPath>
</defs>
</svg>
