<svg width="17" height="14" viewBox="0 0 17 14" fill="none" xmlns="http://www.w3.org/2000/svg">
<g clip-path="url(#clip0_12_17)">
<path d="M8.50024 2.1875C6.57593 2.1875 4.99399 2.99688 3.78097 4.03867C2.64468 5.01758 1.85961 6.17969 1.45822 7C1.85961 7.82031 2.64468 8.98242 3.77802 9.96133C4.99399 11.0031 6.57593 11.8125 8.50024 11.8125C10.4245 11.8125 12.0065 11.0031 13.2195 9.96133C14.3558 8.98242 15.1409 7.82031 15.5423 7C15.1409 6.17969 14.3558 5.01758 13.2225 4.03867C12.0065 2.99688 10.4245 2.1875 8.50024 2.1875ZM2.81586 3.07891C4.20597 1.88125 6.11552 0.875 8.50024 0.875C10.885 0.875 12.7945 1.88125 14.1846 3.07891C15.5659 4.26836 16.4896 5.6875 16.9294 6.66367C17.0268 6.87969 17.0268 7.12031 16.9294 7.33633C16.4896 8.3125 15.5659 9.73438 14.1846 10.9211C12.7945 12.1187 10.885 13.125 8.50024 13.125C6.11552 13.125 4.20597 12.1187 2.81586 10.9211C1.43461 9.73438 0.510829 8.3125 0.0740234 7.33633C-0.0233724 7.12031 -0.0233724 6.87969 0.0740234 6.66367C0.510829 5.6875 1.43461 4.26562 2.81586 3.07891ZM8.50024 9.1875C9.80475 9.1875 10.8614 8.20859 10.8614 7C10.8614 5.79141 9.80475 4.8125 8.50024 4.8125C8.47958 4.8125 8.46187 4.8125 8.44121 4.8125C8.47958 4.95195 8.50024 5.09961 8.50024 5.25C8.50024 6.21523 7.65319 7 6.61135 7C6.44902 7 6.28965 6.98086 6.13913 6.94531C6.13913 6.96445 6.13913 6.98086 6.13913 7C6.13913 8.20859 7.19572 9.1875 8.50024 9.1875ZM8.50024 3.5C9.50217 3.5 10.4631 3.86875 11.1715 4.52513C11.88 5.1815 12.278 6.07174 12.278 7C12.278 7.92826 11.88 8.8185 11.1715 9.47487C10.4631 10.1313 9.50217 10.5 8.50024 10.5C7.49831 10.5 6.53742 10.1313 5.82895 9.47487C5.12048 8.8185 4.72246 7.92826 4.72246 7C4.72246 6.07174 5.12048 5.1815 5.82895 4.52513C6.53742 3.86875 7.49831 3.5 8.50024 3.5Z" fill="black"/>
</g>
<defs>
<clipPath id="clip0_12_17">
<rect width="17" height="14" fill="white"/>
</clipPath>
</defs>
</svg>
